# xmcd CD database file
#
# Track frame offsets:
#	150
#	8827
#	20144
#	30921
#	41776
#	49623
#	63984
#	74180
#	82828
#	104640
#	112012
#	117222
#	132055
#	141169
#	149726
#	162357
#
# Disc length: 2335 seconds
#
# Revision: 1
# Processed by: cddbd v1.5.2PL0 Copyright (c) Steve Scherf et al.
# Submitted via: CDex 1.51
#
DISCID=e8091d10
DTITLE=池田達也 - はじめてのジャズ・ベース
DYEAR=2009
DGENRE=Jazz
TTITLE0=Blues In F [1]
TTITLE1=Blues In F [2]
TTITLE2=Now's The Time
TTITLE3=Fly Me To The Moon
TTITLE4=Fly Me To The Moon (Bossa Nova)
TTITLE5=Autumn Leaves
TTITLE6=Oleo
TTITLE7=On Green Dorphin Street
TTITLE8=My Funny Valentine
TTITLE9=Waltz For Debby
TTITLE10=Mr. P.C.
TTITLE11=So What
TTITLE12=So What (Club Jazz)
TTITLE13=Cantaloupe Island
TTITLE14=Spain
TTITLE15=The Chicken
EXTD=YEAR: 2009
EXTT0=
EXTT1=
EXTT2=
EXTT3=
EXTT4=
EXTT5=
EXTT6=
EXTT7=
EXTT8=
EXTT9=
EXTT10=
EXTT11=
EXTT12=
EXTT13=
EXTT14=
EXTT15=
PLAYORDER=
